inDegrees=no
num_controls=7
num_derivatives=13
num_iterations=123
num_multipliers=7
num_parameters=0
num_slacks=7
num_states=26
objective=5.429162
objective_accelerations=0.780633
objective_balance=0.039714
objective_effort=0.249272
objective_height=4.282408
objective_ligament=0.077136
solver_duration=1346.142606
status=Solve_Succeeded
success=true
DataType=double
version=3
OpenSimVersion=4.4-2022-07-23-0e9fedc
endheader
time	/jointset/ground_pelvis/pelvis_tilt/value	/jointset/ground_pelvis/pelvis_tx/value	/jointset/ground_pelvis/pelvis_ty/value	/jointset/hip_l/hip_flexion_l/value	/jointset/hip_l/hip_adduction_l/value	/jointset/hip_l/hip_rotation_l/value	/jointset/back/lumbar_extension/value	/jointset/patellofemoral_l/patellar_flexion_l/value	/jointset/knee_l/knee_flexion_l/value	/jointset/knee_l/knee_adduction_l/value	/jointset/knee_l/knee_rotation_l/value	/jointset/ankle_l/ankle_angle_l/value	/jointset/subtalar_l/subtalar_angle_l/value	/jointset/ground_pelvis/pelvis_tilt/speed	/jointset/ground_pelvis/pelvis_tx/speed	/jointset/ground_pelvis/pelvis_ty/speed	/jointset/hip_l/hip_flexion_l/speed	/jointset/hip_l/hip_adduction_l/speed	/jointset/hip_l/hip_rotation_l/speed	/jointset/back/lumbar_extension/speed	/jointset/patellofemoral_l/patellar_flexion_l/speed	/jointset/knee_l/knee_flexion_l/speed	/jointset/knee_l/knee_adduction_l/speed	/jointset/knee_l/knee_rotation_l/speed	/jointset/ankle_l/ankle_angle_l/speed	/jointset/subtalar_l/subtalar_angle_l/speed	/forceset/tau_hip_flexion_l	/forceset/tau_hip_adduction_l	/forceset/tau_hip_rotation_l	/forceset/tau_knee_flexion_l	/forceset/tau_ankle_angle_l	/forceset/tau_subtalar_angle_l	/forceset/tau_lumbar_extension	lambda_cid13_p0	lambda_cid13_p1	lambda_cid13_p2	lambda_cid13_p3	lambda_cid13_p4	lambda_cid13_p5	lambda_cid14_p0	/jointset/ground_pelvis/pelvis_tilt/accel	/jointset/ground_pelvis/pelvis_tx/accel	/jointset/ground_pelvis/pelvis_ty/accel	/jointset/hip_l/hip_flexion_l/accel	/jointset/hip_l/hip_adduction_l/accel	/jointset/hip_l/hip_rotation_l/accel	/jointset/back/lumbar_extension/accel	/jointset/patellofemoral_l/patellar_flexion_l/accel	/jointset/knee_l/knee_flexion_l/accel	/jointset/knee_l/knee_adduction_l/accel	/jointset/knee_l/knee_rotation_l/accel	/jointset/ankle_l/ankle_angle_l/accel	/jointset/subtalar_l/subtalar_angle_l/accel	gamma_cid13_p0	gamma_cid13_p1	gamma_cid13_p2	gamma_cid13_p3	gamma_cid13_p4	gamma_cid13_p5	gamma_cid14_p0
0.5	-0.4655500420277576	-0.07004524910968189	0.7605477155253375	1.275911757790763	-0.3587259306717827	-0.04214954396030676	-0.412688011804055	0.7575901414692938	0.7575901414692612	-0.06498900932186237	-0.1745261090160037	0.05387492708388694	0.07794664055801757	-1.426701175946252	-0.4127429488666663	-0.5556044359617974	3.107157368909154	0.05977723142784998	0.4683867949013539	-0.2665653950802549	1.44575650734355	1.445756507343638	0.2283170716541797	0.0001116230491120954	-0.1224691793661454	0.02072675696902108	-0.1847735659795655	-0.003555244858760833	0.008052629218736573	-0.1351669639554893	0.0802950982698	0.01597662723455908	0.1609760494576036	1.668017757476741	-6.804388871606966	0.3168376229225595	-7.50883413303012	-434.553812004753	-70.74393511601349	-12.92834414044973	0.6307185899242322	0.7597091013139844	-0.3817560334813127	-1.993321684976243	0.1315804810412403	-0.4802540404344475	1.72279587381521	-1.28041671973489	-1.280416719734997	-0.4343943314585524	0.06194674039290806	-0.07186203604767481	0.1178542738667931	-9.815665592362552e-08	-1.134670795455757e-06	1.954103435312125e-07	-2.319016143583086e-07	-4.471576022401994e-07	4.377160082560962e-07	-2.707911351535767e-07
0.51	-0.4797823498686363	-0.07413412035455863	0.7549740476743968	1.306877598615477	-0.3581231958380067	-0.03749185965737633	-0.4152690518828813	0.7719811624320213	0.7719811624319846	-0.06272953600123794	-0.1745246608754105	0.05264635784874087	0.07815803592782521	-1.419572409279971	-0.4049860028014782	-0.5589944387854386	3.085583870958517	0.06075588696693898	0.4630840651967058	-0.2496527773581307	1.432226613865385	1.432226613865392	0.223571863640817	0.0001629337198395727	-0.1232382723461064	0.02154026080574168	-0.1922896857703265	-0.002730481530026234	0.007484717424349386	-0.1353603202293319	0.08183173598741035	0.01663823071575071	0.1661107368110259	1.977641305882334	-7.012002358387688	0.1969523537087649	-7.841517881847308	-438.7408844540658	-70.73475322958856	-12.33415307734021	0.7821119579273815	0.7904380081563743	-0.2975063703307255	-2.303450862772063	0.07909450733473045	-0.5653957953103047	1.673971220401187	-1.422382572787619	-1.422382572799781	-0.4956685170284172	-0.02543791719040638	-0.07851699349478689	0.06142890788771618	-9.967665624196758e-08	-1.008598152066143e-06	2.858536329558958e-07	-2.105844452688808e-07	-4.307074189545642e-07	4.653059056520435e-07	-2.648657606376734e-07
0.52	-0.4939377387922588	-0.07814407200897616	0.7493705030025144	1.337614887058153	-0.3575110571654501	-0.03288922532344273	-0.4176812704846873	0.7862302630777599	0.7862302630777539	-0.06051773165686157	-0.1745231318576356	0.05141028087089063	0.07837723242986273	-1.411317392495816	-0.3969590307748225	-0.5615798001500911	3.061446892501297	0.06165799918570719	0.4573768010988446	-0.2328010996764124	1.417372443950001	1.417372443949927	0.2187832763973146	0.0001277984864476349	-0.1239707279070472	0.02228698341498147	-0.1998058055610855	-0.001905718201262979	0.006916805630113899	-0.1355536765031791	0.08336837370502614	0.01729983419697248	0.1712454241644457	2.287087000183341	-7.220733684104255	0.07855768599373245	-8.17838446425707	-442.9309113355818	-70.76975902526135	-11.74347571447134	0.8559686134990945	0.8137142936075583	-0.2208277416835674	-2.506017786293112	0.1162718169770931	-0.5611609190771064	1.71060786573398	-1.545272007178976	-1.545272007178996	-0.4430701774864809	0.04465755956900161	-0.06453455224351487	0.1044980283706565	-9.90787825891379e-08	-8.982151787982218e-07	3.470220924127593e-07	-1.920939301174482e-07	-4.091068925101904e-07	4.862732542852678e-07	-2.566212239432872e-07
0.53	-0.5080050932152355	-0.08207251713709074	0.7437451134736024	1.368098409500011	-0.3568903260222707	-0.02834474590188774	-0.4199253411539868	0.8003244550091626	0.8003244550091082	-0.05835450642593866	-0.1745217520692563	0.0501670948810296	0.07860351454467469	-1.401966315958506	-0.3886948594998881	-0.5633627842572821	3.034848453682665	0.06246771504799957	0.4514953850192353	-0.2160438714608629	1.401262557777043	1.401262557777046	0.2138253732721935	0.0001557218490837113	-0.1246590506561922	0.0229502250743038	-0.2073401586273372	-0.001465728369229348	0.006335920431115534	-0.1356415368667178	0.08461223768509048	0.01812424351424384	0.1763058467703939	2.508908969831394	-7.491215181104617	-0.02269810898461564	-8.404602154149492	-447.1268766796749	-70.94430981370159	-11.15686539402449	1.002714787463444	0.8380023705405047	-0.1368150911417175	-2.798173731231627	0.06035756925274123	-0.6053893922844192	1.65365470784943	-1.674304146846203	-1.674304146834597	-0.52779053845048	-0.01688927981910956	-0.06990206390332909	0.04444387830023158	-8.183694722694634e-08	-8.698720156348978e-07	2.056682466900149e-07	-2.034721330164446e-07	-3.534579609937015e-07	4.604074312473013e-07	-2.326010152261065e-07
0.54	-0.5219733293501115	-0.08591727378723477	0.7381059378344373	1.398303664193358	-0.3562620905007954	-0.02385983212913076	-0.422002764659454	0.8142514566339051	0.8142514566338837	-0.05624198825773997	-0.1745198428482154	0.04891724147814526	0.07883587040479745	-1.391493734876549	-0.3802213351807113	-0.5643370222006792	3.005793342800704	0.06315887484622357	0.445463671344352	-0.1994716669099657	1.383934382624404	1.383934382624485	0.2086418638100252	0.0002336850345229971	-0.1253042105114732	0.02350173247710837	-0.2148745116936963	-0.001025738537339292	0.00575503523284639	-0.135729397230292	0.08585610166511518	0.01894865283134181	0.1813662693762573	2.730098979275441	-7.763088134301554	-0.1220162754267872	-8.637033341484601	-451.3360370052964	-71.16527937360242	-10.57501851374757	1.080269522428274	0.8555849024561064	-0.05907850892472466	-2.997352198959098	0.09256060416349257	-0.591220438131851	1.673603132803451	-1.788929803115067	-1.788929803115067	-0.488191444895928	0.05466552412969832	-0.05590197347062103	0.08215117706715315	-4.61805159309925e-08	-9.322963019490019e-07	-1.597528302952768e-07	-2.478965771627245e-07	-2.601384536527442e-07	3.827261842326978e-07	-1.911268715049827e-07
0.55	-0.5358316501569302	-0.08967628835680648	0.7324610570868682	1.428206684490527	-0.3556270178777592	-0.01943770110098945	-0.4239154362469763	0.8279993670630502	0.8279993670630128	-0.0541802520883166	-0.1745177282960111	0.0476614332282127	0.07907383627912931	-1.380005000639875	-0.3715481057360481	-0.5645013570972943	2.974421392047474	0.06384192985722262	0.4388833904693475	-0.1831205651597211	1.365452193466669	1.365452193466665	0.2037245356765938	0.0001663717281512968	-0.1258372360008444	0.02408392263622485	-0.2219978007688888	-0.0007641467514434433	0.005123112551651132	-0.1363360126392328	0.0879343457258038	0.01953029100652366	0.1860795650334661	3.209706277393269	-7.951777770483363	-0.2608615774061637	-9.075815971945167	-455.5045524052069	-71.26791747821738	-9.998692222304093	1.207957259055594	0.8781584897204568	0.02551270504756184	-3.265549657232777	0.05433261670708932	-0.7034299174442364	1.607176511350869	-1.907156231938851	-1.907156231951453	-0.4908532705271253	-0.04088156364812728	-0.04901530715053987	0.04532118644978914	-5.847905556703296e-08	-7.413053867925164e-07	1.047326947260745e-07	-1.959344205011923e-07	-2.601591745385023e-07	4.361109282855435e-07	-1.945749257956136e-07
0.5600000000000001	-0.5495701272444284	-0.09334757732708139	0.7268186577273481	1.457784298651414	-0.3549854837711945	-0.01508377248265872	-0.4256663342539521	0.8415565970486489	0.8415565970486002	-0.05216715915479048	-0.1745169772380175	0.04640089222928975	0.07931743770527566	-1.367524991012468	-0.3626762153213489	-0.563840744590834	2.940712115545141	0.06445117155380366	0.4318231893839598	-0.1671169508008514	1.345798293915486	1.345798293915399	0.1989132166247294	-3.901380332175321e-05	-0.1262507603094254	0.02462884283997193	-0.2291210898441237	-0.0005025549656280028	0.004491189870498422	-0.1369426280481925	0.09001258978646876	0.02011192918161785	0.190792860690647	3.687287947622957	-8.141078559795334	-0.3985065799854114	-9.515761504968602	-459.7090141835756	-71.40042977850931	-9.428803331908128	1.278524600574751	0.8953170964633858	0.1059109716903616	-3.464817348779648	0.07779794127991096	-0.6872044802084367	1.604105654528438	-2.023271881804535	-2.023271881804548	-0.466989628582505	0.02705107910944944	-0.03200173731247754	0.07469718599330406	-1.283235603214647e-07	-2.46216229871333e-07	1.125106142155373e-06	-2.830834287028939e-08	-3.721881692963151e-07	6.467748616193232e-07	-2.519296177003482e-07
0.5700000000000001	-0.5631788360759019	-0.09692935309518298	0.7211869203963862	1.487013436078975	-0.3543388027445458	-0.01079843866825783	-0.4272589826121668	0.854911529747266	0.8549115297472214	-0.05020548362715468	-0.1745163160756944	0.04513649432268951	0.07956554837040702	-1.354041972111066	-0.3536656403622193	-0.5623746854748312	2.904754230848497	0.06488016627334318	0.4251504904638039	-0.1514826727702909	1.325017432046988	1.325017432046906	0.1934697168740573	0.0001375720788345114	-0.1266183778996594	0.0249925067656596	-0.2364862830935375	-6.50791004529184e-05	0.00387991613328984	-0.1367692903582625	0.09079915646557052	0.02058567222094634	0.1955447088653655	3.744712573724449	-8.249159546316381	-0.5043182961851097	-9.498941496231128	-463.7377476817485	-71.31017582346873	-8.866254482687994	1.409377613814275	0.9059356885151512	0.1866716890312314	-3.715487540067662	0.02454072824166172	-0.67150645733935	1.532596088062421	-2.131058528757702	-2.131058528756902	-0.5758329273473164	0.008256028515075136	-0.03756411934442765	0.01687632512043958	-1.652735783485471e-07	3.994109829075666e-08	1.678730457857472e-06	6.807927821625466e-08	-4.215752420388642e-07	7.669605363319558e-07	-2.796662842950525e-07
